<svg id="Capa_1" data-name="Capa 1" xmlns="http://www.w3.org/2000/svg" viewBox="0 0 218.79 184.25"><defs><style>.cls-1{fill:#3c56a0;}</style></defs><title>oa NEXT</title><path class="cls-1" d="M172,311h21.89c.34-38.69,17.28-73.19,50.85-73.19,34.14,0,50.63,37.06,50.63,72.53,0,.22,0,.44,0,.66H317c0-.57,0-1.14,0-1.72,0-29.8-8.88-54.65-24.37-70.68L313,239c2.41,9.4,5.89,21.45,9.49,32l13.6,40H359L327.4,219.37,243,219l.09.09C202.47,220.57,172.65,256.5,172,311Z" transform="translate(-172 -219)"/><path d="M336.1,311l3.44,10.11H316.62q.37-4.91.42-10.11H295.38c-.2,40.2-18.54,73.45-50.85,73.45s-50.63-34.15-50.63-72.26c0-.4,0-.79,0-1.19H172c0,.58,0,1.14,0,1.72,0,54,29.44,90.53,71.35,90.53,33.46,0,61.91-22.24,70.81-64.58h30L366.77,403h24L359,311Z" transform="translate(-172 -219)"/></svg>